<svg xmlns="http://www.w3.org/2000/svg" xmlns:svg="http://www.w3.org/2000/svg" id="svg2" width="9367.923" height="4108.284" version="1.1" viewBox="0 0 8782.428 3851.516"><metadata id="metadata7"/><g id="g4157" transform="translate(2203.3186,1962.0394)" style="display:inline"><rect style="display:inline;opacity:1;fill:none;fill-opacity:1;stroke:gray;stroke-width:11.05660725;stroke-miterlimit:4;stroke-dasharray:none;stroke-opacity:1" id="rect4136" width="288.943" height="288.943" x="708.385" y="-1390.377" ry="0"/><path style="display:inline;opacity:1;fill:#000;fill-opacity:1;stroke:#000;stroke-width:8.07780743;stroke-miterlimit:4;stroke-dasharray:none;stroke-opacity:1" id="path4175" d="m 948.22718,-1104.1681 c 7.47613,7.4761 23.9146,3.1588 36.71634,-9.6429 12.80173,-12.8017 17.11898,-29.2402 9.64285,-36.7163 -7.47612,-7.4762 -126.05745,-105.3018 -138.85919,-92.5 -12.80175,12.8017 85.02386,131.383 92.5,138.8592 z"/><rect id="rect4208" width="288.943" height="288.943" x="1114.1" y="-1390.377" ry="0" style="display:inline;opacity:1;fill:none;fill-opacity:1;stroke:gray;stroke-width:11.05660725;stroke-miterlimit:4;stroke-dasharray:none;stroke-opacity:1"/><circle id="circle4210" cx="1258.571" cy="-1245.906" r="31.82" style="display:inline;opacity:1;fill:#000;fill-opacity:1;stroke:#000;stroke-width:10;stroke-miterlimit:4;stroke-dasharray:none;stroke-opacity:1"/><text style="font-style:normal;font-weight:400;font-size:286.5987854px;line-height:125%;font-family:sans-serif;letter-spacing:0;word-spacing:0;fill:#000;fill-opacity:1;stroke:none;stroke-width:1px;stroke-linecap:butt;stroke-linejoin:miter;stroke-opacity:1" id="text4574" x="486.668" y="-1140.897" xml:space="preserve"><tspan id="tspan4578" x="486.668" y="-1140.897" style="text-align:end;text-anchor:end">Arm</tspan></text><rect id="rect4615" width="288.943" height="288.943" x="708.385" y="-969.969" ry="0" style="display:inline;opacity:1;fill:none;fill-opacity:1;stroke:gray;stroke-width:11.05660725;stroke-miterlimit:4;stroke-dasharray:none;stroke-opacity:1"/><path style="display:inline;opacity:1;fill:#000;fill-opacity:1;stroke:#000;stroke-width:8.07780743;stroke-miterlimit:4;stroke-dasharray:none;stroke-opacity:1" id="path4621" d="m 756.60309,-683.75996 c -7.47613,7.47613 -23.9146,3.15888 -36.71634,-9.64286 -12.80173,-12.80174 -17.11899,-29.2402 -9.64285,-36.71634 7.47612,-7.47614 126.05745,-105.30174 138.85919,-92.5 12.80175,12.80174 -85.02386,131.38307 -92.5,138.8592 z"/><rect style="display:inline;opacity:1;fill:none;fill-opacity:1;stroke:gray;stroke-width:11.05660725;stroke-miterlimit:4;stroke-dasharray:none;stroke-opacity:1" id="rect4637" width="288.943" height="288.943" x="1114.1" y="-969.969" ry="0"/><circle style="display:inline;opacity:1;fill:#000;fill-opacity:1;stroke:#000;stroke-width:10;stroke-miterlimit:4;stroke-dasharray:none;stroke-opacity:1" id="circle4639" cx="1258.571" cy="-825.497" r="31.82"/><text id="text4657" x="486.668" y="-720.489" xml:space="preserve" style="font-style:normal;font-weight:400;font-size:286.5987854px;line-height:125%;font-family:sans-serif;letter-spacing:0;word-spacing:0;fill:#000;fill-opacity:1;stroke:none;stroke-width:1px;stroke-linecap:butt;stroke-linejoin:miter;stroke-opacity:1"><tspan style="text-align:end;text-anchor:end" id="tspan4659" x="486.668" y="-720.489">Disarm</tspan></text><rect id="rect4667" width="288.943" height="288.943" x="708.385" y="-549.561" ry="0" style="display:inline;opacity:1;fill:none;fill-opacity:1;stroke:gray;stroke-width:11.05660725;stroke-miterlimit:4;stroke-dasharray:none;stroke-opacity:1"/><path style="display:inline;opacity:1;fill:#000;fill-opacity:1;stroke:#000;stroke-width:8.07780743;stroke-miterlimit:4;stroke-dasharray:none;stroke-opacity:1" id="path4673" d="m 756.60309,-263.35179 c -7.47613,7.47613 -23.9146,3.15888 -36.71634,-9.64286 -12.80173,-12.80174 -17.11899,-29.2402 -9.64285,-36.71634 7.47612,-7.47614 126.05745,-105.30174 138.85919,-92.5 12.80175,12.80174 -85.02386,131.38307 -92.5,138.8592 z"/><rect style="display:inline;opacity:1;fill:none;fill-opacity:1;stroke:gray;stroke-width:11.05660725;stroke-miterlimit:4;stroke-dasharray:none;stroke-opacity:1" id="rect4689" width="288.943" height="288.943" x="1114.1" y="-549.561" ry="0"/><path style="display:inline;opacity:1;fill:#000;fill-opacity:1;stroke:#000;stroke-width:8.07780743;stroke-miterlimit:4;stroke-dasharray:none;stroke-opacity:1" id="path4705" d="m 1090.881,-372.67398 c -10.5728,0 -19.1438,-14.67651 -19.1438,-32.7809 0,-18.10439 8.571,-32.7809 19.1438,-32.7809 10.5729,-1e-5 163.5957,14.6765 163.5957,32.7809 0,18.1044 -153.0228,32.78091 -163.5957,32.7809 z"/><text id="text4709" x="486.668" y="-300.08" xml:space="preserve" style="font-style:normal;font-weight:400;font-size:286.5987854px;line-height:125%;font-family:sans-serif;letter-spacing:0;word-spacing:0;fill:#000;fill-opacity:1;stroke:none;stroke-width:1px;stroke-linecap:butt;stroke-linejoin:miter;stroke-opacity:1"><tspan style="text-align:end;text-anchor:end" id="tspan4711" x="486.668" y="-300.08">Profile 1</tspan></text><rect style="display:inline;opacity:1;fill:none;fill-opacity:1;stroke:gray;stroke-width:11.05660725;stroke-miterlimit:4;stroke-dasharray:none;stroke-opacity:1" id="rect4719" width="288.943" height="288.943" x="708.385" y="-129.153" ry="0"/><path id="path4725" d="m 756.60309,157.05638 c -7.47613,7.47613 -23.9146,3.15888 -36.71634,-9.64286 -12.80173,-12.80174 -17.11899,-29.2402 -9.64285,-36.71634 7.47612,-7.47614 126.05745,-105.30174 138.85919,-92.5 12.80175,12.80174 -85.02386,131.38307 -92.5,138.8592 z" style="display:inline;opacity:1;fill:#000;fill-opacity:1;stroke:#000;stroke-width:8.07780743;stroke-miterlimit:4;stroke-dasharray:none;stroke-opacity:1"/><rect id="rect4741" width="288.943" height="288.943" x="1114.1" y="-129.153" ry="0" style="display:inline;opacity:1;fill:none;fill-opacity:1;stroke:gray;stroke-width:11.05660725;stroke-miterlimit:4;stroke-dasharray:none;stroke-opacity:1"/><path style="opacity:1;fill:#000;fill-opacity:1;stroke:#000;stroke-width:8.07780743;stroke-miterlimit:4;stroke-dasharray:none;stroke-opacity:1" id="path4759" d="m 1291.3523,-149.39445 c 0,-10.57285 -14.6765,-19.14384 -32.7809,-19.14384 -18.1043,0 -32.7809,8.57099 -32.7809,19.14384 0,10.57285 14.6765,163.59566 32.7809,163.59566 18.1044,0 32.781,-153.02281 32.7809,-163.59566 z"/><text style="font-style:normal;font-weight:400;font-size:286.5987854px;line-height:125%;font-family:sans-serif;letter-spacing:0;word-spacing:0;fill:#000;fill-opacity:1;stroke:none;stroke-width:1px;stroke-linecap:butt;stroke-linejoin:miter;stroke-opacity:1" id="text4761" x="486.668" y="120.328" xml:space="preserve"><tspan id="tspan4763" x="486.668" y="120.328" style="text-align:end;text-anchor:end">Profile 2</tspan></text><rect id="rect4771" width="288.943" height="288.943" x="708.385" y="291.255" ry="0" style="display:inline;opacity:1;fill:none;fill-opacity:1;stroke:gray;stroke-width:11.05660725;stroke-miterlimit:4;stroke-dasharray:none;stroke-opacity:1"/><path style="display:inline;opacity:1;fill:#000;fill-opacity:1;stroke:#000;stroke-width:8.07780743;stroke-miterlimit:4;stroke-dasharray:none;stroke-opacity:1" id="path4777" d="m 756.60309,577.46454 c -7.47613,7.47613 -23.9146,3.15888 -36.71634,-9.64286 -12.80173,-12.80174 -17.11899,-29.2402 -9.64285,-36.71634 7.47612,-7.47614 126.05745,-105.30174 138.85919,-92.5 12.80175,12.80174 -85.02386,131.38307 -92.5,138.8592 z"/><rect style="display:inline;opacity:1;fill:none;fill-opacity:1;stroke:gray;stroke-width:11.05660725;stroke-miterlimit:4;stroke-dasharray:none;stroke-opacity:1" id="rect4793" width="288.943" height="288.943" x="1114.1" y="291.255" ry="0"/><path id="path4807" d="m 1425.2415,403.08564 c 10.5729,0 19.1439,14.67651 19.1439,32.7809 0,18.10439 -8.571,32.7809 -19.1439,32.7809 -10.5728,10e-6 -163.5957,-14.6765 -163.5957,-32.7809 0,-18.1044 153.0229,-32.78091 163.5957,-32.7809 z" style="display:inline;opacity:1;fill:#000;fill-opacity:1;stroke:#000;stroke-width:8.07780743;stroke-miterlimit:4;stroke-dasharray:none;stroke-opacity:1"/><text id="text4813" x="486.668" y="540.736" xml:space="preserve" style="font-style:normal;font-weight:400;font-size:286.5987854px;line-height:125%;font-family:sans-serif;letter-spacing:0;word-spacing:0;fill:#000;fill-opacity:1;stroke:none;stroke-width:1px;stroke-linecap:butt;stroke-linejoin:miter;stroke-opacity:1"><tspan style="text-align:end;text-anchor:end" id="tspan4815" x="486.668" y="540.736">Profile 3</tspan></text><rect style="display:inline;opacity:1;fill:none;fill-opacity:1;stroke:gray;stroke-width:11.05660725;stroke-miterlimit:4;stroke-dasharray:none;stroke-opacity:1" id="rect4823" width="288.943" height="288.943" x="708.385" y="711.664" ry="0"/><path id="path4829" d="m 756.60309,997.87274 c -7.47613,7.47616 -23.9146,3.15886 -36.71634,-9.64286 -12.80173,-12.80174 -17.11899,-29.2402 -9.64285,-36.71634 7.47612,-7.47614 126.05745,-105.30174 138.85919,-92.5 12.80175,12.80174 -85.02386,131.38307 -92.5,138.8592 z" style="display:inline;opacity:1;fill:#000;fill-opacity:1;stroke:#000;stroke-width:8.07780743;stroke-miterlimit:4;stroke-dasharray:none;stroke-opacity:1"/><rect id="rect4845" width="288.943" height="288.943" x="1114.1" y="711.664" ry="0" style="display:inline;opacity:1;fill:none;fill-opacity:1;stroke:gray;stroke-width:11.05660725;stroke-miterlimit:4;stroke-dasharray:none;stroke-opacity:1"/><path id="path4849" d="m 1291.3523,1021.9347 c 0,10.5728 -14.6765,19.1438 -32.7809,19.1438 -18.1043,0 -32.7809,-8.571 -32.7809,-19.1438 0,-10.5729 14.6765,-163.5957 32.7809,-163.5957 18.1044,0 32.781,153.0228 32.7809,163.5957 z" style="display:inline;opacity:1;fill:#000;fill-opacity:1;stroke:#000;stroke-width:8.07780743;stroke-miterlimit:4;stroke-dasharray:none;stroke-opacity:1"/><text style="font-style:normal;font-weight:400;font-size:286.5987854px;line-height:125%;font-family:sans-serif;letter-spacing:0;word-spacing:0;fill:#000;fill-opacity:1;stroke:none;stroke-width:1px;stroke-linecap:butt;stroke-linejoin:miter;stroke-opacity:1" id="text4865" x="486.668" y="961.144" xml:space="preserve"><tspan id="tspan4867" x="486.668" y="961.144" style="text-align:end;text-anchor:end">Calibrate Gyro</tspan></text><rect style="display:inline;opacity:1;fill:none;fill-opacity:1;stroke:gray;stroke-width:11.05660725;stroke-miterlimit:4;stroke-dasharray:none;stroke-opacity:1" id="rect4875" width="288.943" height="288.943" x="708.385" y="1132.072" ry="0"/><path style="display:inline;opacity:1;fill:#000;fill-opacity:1;stroke:#000;stroke-width:8.07780743;stroke-miterlimit:4;stroke-dasharray:none;stroke-opacity:1" id="path4887" d="m 757.10817,1133.9385 c -7.47613,-7.4762 -23.9146,-3.1589 -36.71634,9.6428 -12.80173,12.8018 -17.11899,29.2402 -9.64285,36.7164 7.47612,7.4761 126.05745,105.3017 138.85919,92.5 12.80175,-12.8018 -85.02386,-131.3831 -92.5,-138.8592 z"/><rect id="rect4897" width="288.943" height="288.943" x="1114.1" y="1132.072" ry="0" style="display:inline;opacity:1;fill:none;fill-opacity:1;stroke:gray;stroke-width:11.05660725;stroke-miterlimit:4;stroke-dasharray:none;stroke-opacity:1"/><path id="path4901" d="m 1291.3523,1442.3429 c 0,10.5728 -14.6765,19.1438 -32.7809,19.1438 -18.1043,0 -32.7809,-8.571 -32.7809,-19.1438 0,-10.5729 14.6765,-163.5957 32.7809,-163.5957 18.1044,0 32.781,153.0228 32.7809,163.5957 z" style="display:inline;opacity:1;fill:#000;fill-opacity:1;stroke:#000;stroke-width:8.07780743;stroke-miterlimit:4;stroke-dasharray:none;stroke-opacity:1"/><text style="font-style:normal;font-weight:400;font-size:286.5987854px;line-height:125%;font-family:sans-serif;letter-spacing:0;word-spacing:0;fill:#000;fill-opacity:1;stroke:none;stroke-width:1px;stroke-linecap:butt;stroke-linejoin:miter;stroke-opacity:1" id="text4917" x="486.668" y="1381.552" xml:space="preserve"><tspan id="tspan4919" x="486.668" y="1381.552" style="text-align:end;text-anchor:end">Calibrate Acc</tspan></text><rect id="rect4927" width="288.943" height="288.943" x="708.385" y="1552.48" ry="0" style="display:inline;opacity:1;fill:none;fill-opacity:1;stroke:gray;stroke-width:11.05660725;stroke-miterlimit:4;stroke-dasharray:none;stroke-opacity:1"/><path style="display:inline;opacity:1;fill:#000;fill-opacity:1;stroke:#000;stroke-width:8.07780743;stroke-miterlimit:4;stroke-dasharray:none;stroke-opacity:1" id="path4937" d="m 948.22718,1554.3467 c 7.47613,-7.4762 23.9146,-3.1589 36.71634,9.6428 12.80173,12.8018 17.11898,29.2402 9.64285,36.7164 -7.47612,7.4761 -126.05745,105.3017 -138.85919,92.5 -12.80175,-12.8018 85.02386,-131.3831 92.5,-138.8592 z"/><rect style="display:inline;opacity:1;fill:none;fill-opacity:1;stroke:gray;stroke-width:11.05660725;stroke-miterlimit:4;stroke-dasharray:none;stroke-opacity:1" id="rect4949" width="288.943" height="288.943" x="1114.1" y="1552.48" ry="0"/><path style="display:inline;opacity:1;fill:#000;fill-opacity:1;stroke:#000;stroke-width:8.07780743;stroke-miterlimit:4;stroke-dasharray:none;stroke-opacity:1" id="path4953" d="m 1291.3523,1862.7511 c 0,10.5728 -14.6765,19.1438 -32.7809,19.1438 -18.1043,0 -32.7809,-8.571 -32.7809,-19.1438 0,-10.5729 14.6765,-163.5957 32.7809,-163.5957 18.1044,0 32.781,153.0228 32.7809,163.5957 z"/><text id="text4969" x="486.668" y="1801.961" xml:space="preserve" style="font-style:normal;font-weight:400;font-size:286.5987854px;line-height:125%;font-family:sans-serif;letter-spacing:0;word-spacing:0;fill:#000;fill-opacity:1;stroke:none;stroke-width:1px;stroke-linecap:butt;stroke-linejoin:miter;stroke-opacity:1"><tspan style="text-align:end;text-anchor:end" id="tspan4971" x="486.668" y="1801.961">Calibrate Compass</tspan></text><rect id="rect5607" width="288.943" height="288.943" x="5835.528" y="-1390.377" ry="0" style="display:inline;opacity:1;fill:none;fill-opacity:1;stroke:gray;stroke-width:11.05660725;stroke-miterlimit:4;stroke-dasharray:none;stroke-opacity:1"/><path style="display:inline;opacity:1;fill:#000;fill-opacity:1;stroke:#000;stroke-width:8.07780743;stroke-miterlimit:4;stroke-dasharray:none;stroke-opacity:1" id="path5613" d="m 5883.7461,-1104.1681 c -7.4762,7.4761 -23.9146,3.1588 -36.7164,-9.6429 -12.8017,-12.8017 -17.119,-29.2402 -9.6428,-36.7163 7.4761,-7.4762 126.0574,-105.3018 138.8592,-92.5 12.8017,12.8017 -85.0239,131.383 -92.5,138.8592 z"/><rect style="display:inline;opacity:1;fill:none;fill-opacity:1;stroke:gray;stroke-width:11.05660725;stroke-miterlimit:4;stroke-dasharray:none;stroke-opacity:1" id="rect5629" width="288.943" height="288.943" x="6241.243" y="-1390.377" ry="0"/><path id="path5639" d="m 6481.0845,-1388.5106 c 7.4761,-7.4762 23.9146,-3.1589 36.7163,9.6428 12.8017,12.8018 17.119,29.2402 9.6428,36.7164 -7.4761,7.4761 -126.0574,105.3017 -138.8591,92.5 -12.8018,-12.8018 85.0238,-131.3831 92.5,-138.8592 z" style="display:inline;opacity:1;fill:#000;fill-opacity:1;stroke:#000;stroke-width:8.07780743;stroke-miterlimit:4;stroke-dasharray:none;stroke-opacity:1"/><text id="text5649" x="5613.811" y="-1140.897" xml:space="preserve" style="font-style:normal;font-weight:400;font-size:286.5987854px;line-height:125%;font-family:sans-serif;letter-spacing:0;word-spacing:0;fill:#000;fill-opacity:1;stroke:none;stroke-width:1px;stroke-linecap:butt;stroke-linejoin:miter;stroke-opacity:1"><tspan style="text-align:end;text-anchor:end" id="tspan5651" x="5613.811" y="-1140.897">In-flight Calibration Controls</tspan></text><rect style="display:inline;opacity:1;fill:none;fill-opacity:1;stroke:gray;stroke-width:11.05660725;stroke-miterlimit:4;stroke-dasharray:none;stroke-opacity:1" id="rect5659" width="288.943" height="288.943" x="5835.528" y="-969.969" ry="0"/><path id="path5677" d="m 6012.781,-990.21079 c 0,-10.57281 -14.6765,-19.14381 -32.7809,-19.14381 -18.1044,0 -32.7809,8.571 -32.7809,19.14381 0,10.57285 14.6765,163.59566 32.7809,163.59566 18.1044,0 32.7809,-153.02281 32.7809,-163.59566 z" style="opacity:1;fill:#000;fill-opacity:1;stroke:#000;stroke-width:8.07780743;stroke-miterlimit:4;stroke-dasharray:none;stroke-opacity:1"/><rect id="rect5681" width="288.943" height="288.943" x="6241.243" y="-969.969" ry="0" style="display:inline;opacity:1;fill:none;fill-opacity:1;stroke:gray;stroke-width:11.05660725;stroke-miterlimit:4;stroke-dasharray:none;stroke-opacity:1"/><path id="path5697" d="m 6218.024,-793.08215 c -10.5729,0 -19.1438,-14.67651 -19.1438,-32.7809 0,-18.10439 8.5709,-32.7809 19.1438,-32.7809 10.5728,-10e-6 163.5957,14.6765 163.5957,32.7809 0,18.1044 -153.0229,32.78091 -163.5957,32.7809 z" style="display:inline;opacity:1;fill:#000;fill-opacity:1;stroke:#000;stroke-width:8.07780743;stroke-miterlimit:4;stroke-dasharray:none;stroke-opacity:1"/><text style="font-style:normal;font-weight:400;font-size:286.5987854px;line-height:125%;font-family:sans-serif;letter-spacing:0;word-spacing:0;fill:#000;fill-opacity:1;stroke:none;stroke-width:1px;stroke-linecap:butt;stroke-linejoin:miter;stroke-opacity:1" id="text5701" x="5613.811" y="-720.489" xml:space="preserve"><tspan id="tspan5703" x="5613.811" y="-720.489" style="text-align:end;text-anchor:end">Trim Acc Left</tspan></text><rect style="display:inline;opacity:1;fill:none;fill-opacity:1;stroke:gray;stroke-width:11.05660725;stroke-miterlimit:4;stroke-dasharray:none;stroke-opacity:1" id="rect5711" width="288.943" height="288.943" x="5835.528" y="-549.561" ry="0"/><path id="path5729" d="m 6012.781,-569.80262 c 0,-10.57285 -14.6765,-19.14384 -32.7809,-19.14384 -18.1044,0 -32.7809,8.57099 -32.7809,19.14384 0,10.57285 14.6765,163.59566 32.7809,163.59566 18.1044,0 32.7809,-153.02281 32.7809,-163.59566 z" style="opacity:1;fill:#000;fill-opacity:1;stroke:#000;stroke-width:8.07780743;stroke-miterlimit:4;stroke-dasharray:none;stroke-opacity:1"/><rect id="rect5733" width="288.943" height="288.943" x="6241.243" y="-549.561" ry="0" style="display:inline;opacity:1;fill:none;fill-opacity:1;stroke:gray;stroke-width:11.05660725;stroke-miterlimit:4;stroke-dasharray:none;stroke-opacity:1"/><path style="display:inline;opacity:1;fill:#000;fill-opacity:1;stroke:#000;stroke-width:8.07780743;stroke-miterlimit:4;stroke-dasharray:none;stroke-opacity:1" id="path5747" d="m 6552.3845,-437.73069 c 10.5728,0 19.1438,14.67651 19.1438,32.7809 0,18.10439 -8.571,32.7809 -19.1438,32.7809 -10.5729,10e-6 -163.5957,-14.6765 -163.5957,-32.7809 0,-18.1044 153.0228,-32.78091 163.5957,-32.7809 z"/><text style="font-style:normal;font-weight:400;font-size:286.5987854px;line-height:125%;font-family:sans-serif;letter-spacing:0;word-spacing:0;fill:#000;fill-opacity:1;stroke:none;stroke-width:1px;stroke-linecap:butt;stroke-linejoin:miter;stroke-opacity:1" id="text5753" x="5613.811" y="-300.08" xml:space="preserve"><tspan id="tspan5755" x="5613.811" y="-300.08" style="text-align:end;text-anchor:end">Trim Acc Right</tspan></text><rect id="rect5763" width="288.943" height="288.943" x="5835.528" y="-129.153" ry="0" style="display:inline;opacity:1;fill:none;fill-opacity:1;stroke:gray;stroke-width:11.05660725;stroke-miterlimit:4;stroke-dasharray:none;stroke-opacity:1"/><path style="opacity:1;fill:#000;fill-opacity:1;stroke:#000;stroke-width:8.07780743;stroke-miterlimit:4;stroke-dasharray:none;stroke-opacity:1" id="path5781" d="m 6012.781,-149.39445 c 0,-10.57285 -14.6765,-19.14384 -32.7809,-19.14384 -18.1044,0 -32.7809,8.57099 -32.7809,19.14384 0,10.57285 14.6765,163.59566 32.7809,163.59566 18.1044,0 32.7809,-153.02281 32.7809,-163.59566 z"/><rect style="display:inline;opacity:1;fill:none;fill-opacity:1;stroke:gray;stroke-width:11.05660725;stroke-miterlimit:4;stroke-dasharray:none;stroke-opacity:1" id="rect5785" width="288.943" height="288.943" x="6241.243" y="-129.153" ry="0"/><path id="path5803" d="m 6418.4953,-149.39445 c 0,-10.57285 -14.6765,-19.14384 -32.7809,-19.14384 -18.1044,0 -32.7809,8.57099 -32.7809,19.14384 0,10.57285 14.6765,163.59566 32.7809,163.59566 18.1044,0 32.7809,-153.02281 32.7809,-163.59566 z" style="opacity:1;fill:#000;fill-opacity:1;stroke:#000;stroke-width:8.07780743;stroke-miterlimit:4;stroke-dasharray:none;stroke-opacity:1"/><text id="text5805" x="5613.811" y="120.328" xml:space="preserve" style="font-style:normal;font-weight:400;font-size:286.5987854px;line-height:125%;font-family:sans-serif;letter-spacing:0;word-spacing:0;fill:#000;fill-opacity:1;stroke:none;stroke-width:1px;stroke-linecap:butt;stroke-linejoin:miter;stroke-opacity:1"><tspan style="text-align:end;text-anchor:end" id="tspan5807" x="5613.811" y="120.328">Trim Acc Forwards</tspan></text><rect style="display:inline;opacity:1;fill:none;fill-opacity:1;stroke:gray;stroke-width:11.05660725;stroke-miterlimit:4;stroke-dasharray:none;stroke-opacity:1" id="rect5815" width="288.943" height="288.943" x="5835.528" y="291.255" ry="0"/><path id="path5833" d="m 6012.781,271.01371 c 0,-10.57285 -14.6765,-19.14384 -32.7809,-19.14384 -18.1044,0 -32.7809,8.57099 -32.7809,19.14384 0,10.57285 14.6765,163.59566 32.7809,163.59566 18.1044,0 32.7809,-153.02281 32.7809,-163.59566 z" style="opacity:1;fill:#000;fill-opacity:1;stroke:#000;stroke-width:8.07780743;stroke-miterlimit:4;stroke-dasharray:none;stroke-opacity:1"/><rect id="rect5837" width="288.943" height="288.943" x="6241.243" y="291.255" ry="0" style="display:inline;opacity:1;fill:none;fill-opacity:1;stroke:gray;stroke-width:11.05660725;stroke-miterlimit:4;stroke-dasharray:none;stroke-opacity:1"/><path id="path5841" d="m 6418.4953,601.52646 c 0,10.57285 -14.6765,19.14384 -32.7809,19.14384 -18.1044,0 -32.7809,-8.57099 -32.7809,-19.14384 0,-10.57285 14.6765,-163.59566 32.7809,-163.59566 18.1044,0 32.7809,153.02281 32.7809,163.59566 z" style="display:inline;opacity:1;fill:#000;fill-opacity:1;stroke:#000;stroke-width:8.07780743;stroke-miterlimit:4;stroke-dasharray:none;stroke-opacity:1"/><text style="font-style:normal;font-weight:400;font-size:286.5987854px;line-height:125%;font-family:sans-serif;letter-spacing:0;word-spacing:0;fill:#000;fill-opacity:1;stroke:none;stroke-width:1px;stroke-linecap:butt;stroke-linejoin:miter;stroke-opacity:1" id="text5857" x="5613.811" y="540.736" xml:space="preserve"><tspan id="tspan5859" x="5613.811" y="540.736" style="text-align:end;text-anchor:end">Trim Acc Backwards</tspan></text><rect id="rect5867" width="288.943" height="288.943" x="5835.528" y="711.664" ry="0" style="display:inline;opacity:1;fill:none;fill-opacity:1;stroke:gray;stroke-width:11.05660725;stroke-miterlimit:4;stroke-dasharray:none;stroke-opacity:1"/><path id="path5871" d="m 6012.781,1021.9347 c 0,10.5728 -14.6765,19.1438 -32.7809,19.1438 -18.1044,0 -32.7809,-8.571 -32.7809,-19.1438 0,-10.5729 14.6765,-163.5957 32.7809,-163.5957 18.1044,0 32.7809,153.0228 32.7809,163.5957 z" style="display:inline;opacity:1;fill:#000;fill-opacity:1;stroke:#000;stroke-width:8.07780743;stroke-miterlimit:4;stroke-dasharray:none;stroke-opacity:1"/><rect style="display:inline;opacity:1;fill:none;fill-opacity:1;stroke:gray;stroke-width:11.05660725;stroke-miterlimit:4;stroke-dasharray:none;stroke-opacity:1" id="rect5889" width="288.943" height="288.943" x="6241.243" y="711.664" ry="0"/><path style="display:inline;opacity:1;fill:#000;fill-opacity:1;stroke:#000;stroke-width:8.07780743;stroke-miterlimit:4;stroke-dasharray:none;stroke-opacity:1" id="path5901" d="m 6289.9654,713.53025 c -7.4761,-7.47613 -23.9146,-3.15888 -36.7163,9.64286 -12.8017,12.80174 -17.119,29.2402 -9.6428,36.71634 7.4761,7.47614 126.0574,105.30174 138.8591,92.5 12.8018,-12.80174 -85.0238,-131.38307 -92.5,-138.8592 z"/><text id="text5909" x="5613.811" y="961.144" xml:space="preserve" style="font-style:normal;font-weight:400;font-size:286.5987854px;line-height:125%;font-family:sans-serif;letter-spacing:0;word-spacing:0;fill:#000;fill-opacity:1;stroke:none;stroke-width:1px;stroke-linecap:butt;stroke-linejoin:miter;stroke-opacity:1"><tspan style="text-align:end;text-anchor:end" id="tspan5911" x="5613.811" y="961.144">Disable LCD Page Cycling</tspan></text><rect id="rect5919" width="288.943" height="288.943" x="5835.528" y="1132.072" ry="0" style="display:inline;opacity:1;fill:none;fill-opacity:1;stroke:gray;stroke-width:11.05660725;stroke-miterlimit:4;stroke-dasharray:none;stroke-opacity:1"/><path id="path5923" d="m 6012.781,1442.3429 c 0,10.5728 -14.6765,19.1438 -32.7809,19.1438 -18.1044,0 -32.7809,-8.571 -32.7809,-19.1438 0,-10.5729 14.6765,-163.5957 32.7809,-163.5957 18.1044,0 32.7809,153.0228 32.7809,163.5957 z" style="display:inline;opacity:1;fill:#000;fill-opacity:1;stroke:#000;stroke-width:8.07780743;stroke-miterlimit:4;stroke-dasharray:none;stroke-opacity:1"/><rect style="display:inline;opacity:1;fill:none;fill-opacity:1;stroke:gray;stroke-width:11.05660725;stroke-miterlimit:4;stroke-dasharray:none;stroke-opacity:1" id="rect5941" width="288.943" height="288.943" x="6241.243" y="1132.072" ry="0"/><path id="path5951" d="m 6481.0845,1133.9385 c 7.4761,-7.4762 23.9146,-3.1589 36.7163,9.6428 12.8017,12.8018 17.119,29.2402 9.6428,36.7164 -7.4761,7.4761 -126.0574,105.3017 -138.8591,92.5 -12.8018,-12.8018 85.0238,-131.3831 92.5,-138.8592 z" style="display:inline;opacity:1;fill:#000;fill-opacity:1;stroke:#000;stroke-width:8.07780743;stroke-miterlimit:4;stroke-dasharray:none;stroke-opacity:1"/><text id="text5961" x="5613.811" y="1381.552" xml:space="preserve" style="font-style:normal;font-weight:400;font-size:286.5987854px;line-height:125%;font-family:sans-serif;letter-spacing:0;word-spacing:0;fill:#000;fill-opacity:1;stroke:none;stroke-width:1px;stroke-linecap:butt;stroke-linejoin:miter;stroke-opacity:1"><tspan style="text-align:end;text-anchor:end" id="tspan5963" x="5613.811" y="1381.552">Enable LCD Page Cycling</tspan></text><rect style="display:inline;opacity:1;fill:none;fill-opacity:1;stroke:gray;stroke-width:11.05660725;stroke-miterlimit:4;stroke-dasharray:none;stroke-opacity:1" id="rect5971" width="288.943" height="288.943" x="5835.528" y="1552.48" ry="0"/><path id="path5977" d="m 5883.7461,1838.6891 c -7.4762,7.4762 -23.9146,3.1589 -36.7164,-9.6428 -12.8017,-12.8018 -17.119,-29.2402 -9.6428,-36.7164 7.4761,-7.4761 126.0574,-105.3017 138.8592,-92.5 12.8017,12.8018 -85.0239,131.3831 -92.5,138.8592 z" style="display:inline;opacity:1;fill:#000;fill-opacity:1;stroke:#000;stroke-width:8.07780743;stroke-miterlimit:4;stroke-dasharray:none;stroke-opacity:1"/><rect id="rect5993" width="288.943" height="288.943" x="6241.243" y="1552.48" ry="0" style="display:inline;opacity:1;fill:none;fill-opacity:1;stroke:gray;stroke-width:11.05660725;stroke-miterlimit:4;stroke-dasharray:none;stroke-opacity:1"/><path id="path6001" d="m 6481.0845,1838.6891 c 7.4761,7.4762 23.9146,3.1589 36.7163,-9.6428 12.8017,-12.8018 17.119,-29.2402 9.6428,-36.7164 -7.4761,-7.4761 -126.0574,-105.3017 -138.8591,-92.5 -12.8018,12.8018 85.0238,131.3831 92.5,138.8592 z" style="display:inline;opacity:1;fill:#000;fill-opacity:1;stroke:#000;stroke-width:8.07780743;stroke-miterlimit:4;stroke-dasharray:none;stroke-opacity:1"/><text style="font-style:normal;font-weight:400;font-size:286.5987854px;line-height:125%;font-family:sans-serif;letter-spacing:0;word-spacing:0;fill:#000;fill-opacity:1;stroke:none;stroke-width:1px;stroke-linecap:butt;stroke-linejoin:miter;stroke-opacity:1" id="text6013" x="5613.811" y="1801.961" xml:space="preserve"><tspan id="tspan6015" x="5613.811" y="1801.961" style="text-align:end;text-anchor:end">Save Setting</tspan></text><text style="font-style:normal;font-weight:400;font-size:352.85842896px;line-height:125%;font-family:sans-serif;letter-spacing:0;word-spacing:0;fill:#000;fill-opacity:1;stroke:none;stroke-width:1px;stroke-linecap:butt;stroke-linejoin:miter;stroke-opacity:1" id="text7907" x="2179.281" y="-1690.406" xml:space="preserve"><tspan id="tspan7909" x="2179.281" y="-1690.406" style="text-align:center;text-anchor:middle">Mode 2 Stick Functions</tspan></text></g></svg>